<?xml version="1.0" encoding="utf-8"?>
<!-- Generator: Adobe Illustrator 19.2.1, SVG Export Plug-In . SVG Version: 6.00 Build 0)  -->
<svg version="1.1" id="Capa_1" xmlns="http://www.w3.org/2000/svg" xmlns:xlink="http://www.w3.org/1999/xlink" x="0px" y="0px"
	 viewBox="0 0 107.7 100.3" style="enable-background:new 0 0 107.7 100.3;" xml:space="preserve">
<style type="text/css">
	.st0{fill:none;stroke:#F2F4FC;stroke-width:2;stroke-miterlimit:10;}
</style>
<g>
	<path class="st0" d="M4.1,69.3h91.9V59H4.1V69.3z M67.7,84.8h5.1v4.6H27.2v-4.6h5.1c0.8,0,1.5-0.7,1.5-1.5V72.4h32.3v10.9
		C66.1,84.1,66.8,84.8,67.7,84.8z M4.1,55.9h91.9V4.1H4.1V55.9L4.1,55.9z M2.5,1C1.7,1,1,1.7,1,2.5v68.3c0,0.8,0.7,1.5,1.5,1.5h28.3
		v9.4h-5.1c-0.8,0-1.5,0.7-1.5,1.5v7.6c0,0.8,0.7,1.5,1.5,1.5h48.6c0.8,0,1.5-0.7,1.5-1.5v-7.6c0-0.8-0.7-1.5-1.5-1.5h-5.1v-9.4
		h28.3c0.8,0,1.5-0.7,1.5-1.5V2.5C99,1.7,98.3,1,97.5,1L2.5,1L2.5,1z"/>
	<path class="st0" d="M47.9,62.1c-0.8,0-1.5,0.7-1.5,1.5c0,0.8,0.7,1.5,1.5,1.5c0.8,0,1.5-0.7,1.5-1.5
		C49.4,62.8,48.7,62.1,47.9,62.1"/>
	<g transform="translate(55.377 23.07)">
		<path class="st0" d="M21.3,8H48c1.8,0,3.2,1.4,3.2,3.2V73c0,1.8-1.4,3.2-3.2,3.2H21.3c-1.8,0-3.2-1.4-3.2-3.2V11.2
			C18.1,9.5,19.5,8,21.3,8z"/>
		<path class="st0" d="M18,15.6h33.3v1.3H18V15.6z M18,64.5h33.3v1.3H18V64.5z"/>
		<ellipse class="st0" cx="33.9" cy="69.6" rx="1.5" ry="1.5"/>
	</g>
	<g>
		<path class="st0" d="M59.5,20.9h-0.3l-6.8,2.7l-7.7-2.7l-7.1,2.4c-0.3,0.1-0.5,0.3-0.5,0.6v19.2c0,0.4,0.3,0.6,0.6,0.6h0.3
			l6.8-2.7l7.7,2.7l7.1-2.4c0.3-0.1,0.5-0.4,0.5-0.6V21.5C60.1,21.1,59.9,20.9,59.5,20.9z M52.5,40l-7.7-2.6V22.8l7.7,2.6L52.5,40
			L52.5,40z"/>
		<path class="st0" d="M40.2,20.9c-1.7,0-3.1,1.2-3.1,2.7c0,2,3.1,5,3.1,5s3.1-3,3.1-5C43.3,22.1,41.9,20.9,40.2,20.9L40.2,20.9z
			 M40.2,24.7c-0.7,0-1.2-0.5-1.2-1.1c0-0.6,0.5-1.1,1.2-1.1s1.2,0.5,1.2,1.1C41.4,24.2,40.9,24.7,40.2,24.7z"/>
	</g>
</g>
</svg>
