<?xml version="1.0" encoding="utf-8"?>
<!-- Generator: Adobe Illustrator 19.2.1, SVG Export Plug-In . SVG Version: 6.00 Build 0)  -->
<svg version="1.1" id="Capa_1" xmlns="http://www.w3.org/2000/svg" xmlns:xlink="http://www.w3.org/1999/xlink" x="0px" y="0px"
	 viewBox="0 0 90.8 26.3" style="enable-background:new 0 0 90.8 26.3;" xml:space="preserve">
<style type="text/css">
	.st0{fill:#FFFFFF;}
</style>
<g>
	<path class="st0" d="M0,8.1L0,8.1l15.4,7.2l15.4-7.1v0L15.4,1L0,8.1z M5.5,8.1l9.8-4.5l9.8,4.5l-9.8,4.5L5.5,8.1z M15.4,18L0,11
		v2.6l15.4,7l15.4-7V11L15.4,18z M15.4,23.3L0,16.3v2.6l15.4,7l15.4-7v-2.6L15.4,23.3z M87.3,13.2c0-1.1-0.4-2.2-1.2-3
		c-0.4-0.4-0.8-0.7-1.3-0.9c-0.5-0.2-1-0.3-1.6-0.3c-0.5,0-1.1,0.1-1.6,0.3c-0.5,0.2-0.9,0.5-1.3,0.9c-0.8,0.8-1.2,1.9-1.2,3
		c0,1.1,0.4,2.2,1.2,3c0.4,0.4,0.8,0.7,1.3,0.9c0.5,0.2,1,0.3,1.6,0.3c0.5,0,1.1-0.1,1.6-0.3c0.5-0.2,0.9-0.5,1.3-0.9
		C86.9,15.4,87.3,14.3,87.3,13.2L87.3,13.2z M90.8,13.2c0,1.1-0.2,2-0.6,2.9c-0.4,0.9-0.9,1.7-1.6,2.3c-0.7,0.7-1.5,1.2-2.4,1.6
		c-0.9,0.4-1.9,0.6-2.9,0.6s-2-0.2-2.9-0.6c-0.9-0.4-1.7-0.9-2.4-1.6c-0.7-0.7-1.2-1.5-1.6-2.3c-0.4-0.9-0.6-1.9-0.6-2.9
		c0-1,0.2-2,0.6-2.9c0.4-0.9,0.9-1.7,1.6-2.4c0.7-0.7,1.5-1.2,2.4-1.6c0.9-0.4,1.9-0.6,2.9-0.6c1,0,2,0.2,2.9,0.6
		c0.9,0.4,1.7,0.9,2.4,1.6c0.7,0.7,1.2,1.4,1.6,2.3C90.6,11.1,90.8,12.1,90.8,13.2L90.8,13.2z M74.6,20.1c-0.3,0.1-0.6,0.2-0.9,0.3
		c-0.4,0.1-0.7,0.1-1.1,0.1c-0.5,0-1-0.1-1.5-0.2c-0.5-0.1-0.9-0.4-1.3-0.7c-0.4-0.3-0.6-0.7-0.9-1.2c-0.2-0.5-0.3-1.1-0.3-1.8V0
		h3.6v16.1c0,0.6,0.1,1,0.4,1.2c0.2,0.2,0.5,0.3,0.8,0.3c0.4,0,0.8-0.1,1.2-0.4L74.6,20.1L74.6,20.1z M67.1,6.1l-6.3,16.7
		c-0.5,1.2-1.1,2.1-1.8,2.7c-0.8,0.6-1.7,0.8-2.7,0.8c-0.2,0-0.4,0-0.5,0c-0.2,0-0.4-0.1-0.6-0.1l-1.2-3.3c0.3,0.1,0.6,0.2,0.9,0.3
		c0.3,0.1,0.5,0.1,0.8,0.1c0.6,0,1.1-0.1,1.5-0.4c0.5-0.3,0.8-0.7,1-1.4l0.5-1.4L53.2,6.1H57l3.2,9l3-9L67.1,6.1z M52.4,4h-9.1v4.5
		h9v3.1h-9v8.6h-3.7V0.8h12.8L52.4,4L52.4,4z"/>
</g>
</svg>
