<?xml version="1.0" encoding="utf-8"?>
<!-- Generator: Adobe Illustrator 19.2.1, SVG Export Plug-In . SVG Version: 6.00 Build 0)  -->
<svg version="1.1" id="Capa_1" xmlns="http://www.w3.org/2000/svg" xmlns:xlink="http://www.w3.org/1999/xlink" x="0px" y="0px"
	 viewBox="0 0 126.2 104.2" style="enable-background:new 0 0 126.2 104.2;" xml:space="preserve">
<style type="text/css">
	.st0{fill:none;stroke:#F2F4FC;stroke-width:2;stroke-linecap:round;stroke-linejoin:round;}
	.st1{fill:none;stroke:#F2F4FC;stroke-width:2;stroke-linejoin:round;}
</style>
<g>
	<path class="st0" d="M49.5,16.1v3V16.1z M49.5,76.7v3V76.7z M79.8,49.4h-3H79.8z M19.2,49.4h-3H19.2L19.2,49.4z M48,61.5
		c-1.2,0-2.3-0.4-3.2-1.3L25.3,40.7l6.4-6.4L48,50.6L88.7,9.9l6.4,6.4l-44,43.9C50.4,61.1,49.2,61.5,48,61.5L48,61.5z M82.6,16.1
		C74,6.8,61.7,1,48,1C22,1,1,22,1,47.9s21,46.9,47,46.9s47-21,47-46.9c0-9-2.5-17.4-6.9-24.5L82.6,16.1z M76.1,22.5
		C68.9,14.6,58.7,10.1,48,10.1c-20.9,0-37.9,16.9-37.9,37.8c0,20.9,17,37.8,37.9,37.8s37.9-16.9,37.9-37.8c0-6.5-1.6-12.5-4.5-17.9
		L76.1,22.5z"/>
	<path class="st1" d="M81.6,59.6c0,3.7-3,6.7-6.7,6.7c-3.7,0-6.7-3-6.7-6.7c0-3.7,3-6.7,6.7-6.7C78.5,52.9,81.6,55.9,81.6,59.6
		L81.6,59.6z"/>
	<path class="st0" d="M74.8,66.3c-2.8,0-5.4,0.9-7.2,1.7c-1.7,0.8-2.9,2.6-2.8,4.5v10.5c0,1.9,1.5,3.4,3.4,3.4v13.4
		c0,1.9,1.5,3.4,3.4,3.4h0h6.7c1.9,0,3.4-1.5,3.4-3.4v0V86.4c1.9,0,3.4-1.5,3.4-3.3V72.6c0-1.9-1.1-3.7-2.8-4.5
		C80.2,67.2,77.7,66.3,74.8,66.3L74.8,66.3z"/>
	<path class="st1" d="M101.7,59.6c0,3.7-3,6.7-6.7,6.7c-3.7,0-6.7-3-6.7-6.7v0c0-3.7,3-6.7,6.7-6.7C98.7,52.9,101.7,55.9,101.7,59.6
		C101.7,59.6,101.7,59.6,101.7,59.6L101.7,59.6z"/>
	<path class="st0" d="M95,66.3c-2.8,0-5.4,0.9-7.2,1.7c-1.7,0.8-2.9,2.6-2.8,4.5v10.5c0,1.9,1.5,3.4,3.4,3.4l0,0v13.4
		c0,1.9,1.5,3.4,3.4,3.4h6.7c1.9,0,3.4-1.5,3.4-3.4V86.4c1.9,0,3.4-1.5,3.4-3.3v0V72.6c0-1.9-1.1-3.7-2.8-4.5
		C100.4,67.2,97.8,66.3,95,66.3L95,66.3z"/>
	<path class="st1" d="M121.8,59.6c0,3.7-3,6.7-6.7,6.7c-3.7,0-6.7-3-6.7-6.7v0c0-3.7,3-6.7,6.7-6.7
		C118.8,52.9,121.8,55.9,121.8,59.6C121.8,59.6,121.8,59.6,121.8,59.6z"/>
	<path class="st0" d="M115.1,66.3c-2.8,0-5.4,0.9-7.2,1.7c-1.7,0.8-2.9,2.6-2.8,4.5v10.5c0,1.9,1.5,3.4,3.4,3.4l0,0v13.4
		c0,1.9,1.5,3.4,3.4,3.4h6.7c1.9,0,3.4-1.5,3.4-3.4V86.4c1.9,0,3.4-1.5,3.4-3.3V72.6c0-1.9-1.1-3.7-2.8-4.5
		C120.5,67.2,118,66.3,115.1,66.3L115.1,66.3z"/>
</g>
</svg>
