<?xml version="1.0" encoding="utf-8"?>
<!-- Generator: Adobe Illustrator 19.2.1, SVG Export Plug-In . SVG Version: 6.00 Build 0)  -->
<svg version="1.1" id="Capa_1" xmlns="http://www.w3.org/2000/svg" xmlns:xlink="http://www.w3.org/1999/xlink" x="0px" y="0px"
	 viewBox="0 0 15.9 15.9" style="enable-background:new 0 0 15.9 15.9;" xml:space="preserve">
<style type="text/css">
	.st0{fill:#FFFFFF;}
</style>
<path class="st0" d="M15,11c-1.1,0-2.1-0.2-3.2-0.5c-0.3-0.1-0.6,0-0.9,0.2L9,12.6c-2.5-1.2-4.5-3.4-5.8-5.8l1.9-1.9
	C5.4,4.6,5.5,4.2,5.3,4C5,3,4.9,1.9,4.9,0.9C4.9,0.4,4.5,0,4,0H0.9C0.4,0,0,0.4,0,0.9c0,8.3,6.7,15,15,15c0.5,0,0.9-0.4,0.9-0.9
	v-3.1C15.9,11.4,15.5,11,15,11z M14.1,8h1.8c0-4.4-3.5-8-8-8v1.8C11.4,1.8,14.1,4.5,14.1,8z M10.6,8h1.8c0-2.5-1.9-4.4-4.4-4.4v1.8
	C9.5,5.3,10.6,6.4,10.6,8z"/>
</svg>
