<?xml version="1.0" encoding="utf-8"?>
<!-- Generator: Adobe Illustrator 19.2.1, SVG Export Plug-In . SVG Version: 6.00 Build 0)  -->
<svg version="1.1" id="Capa_1" xmlns="http://www.w3.org/2000/svg" xmlns:xlink="http://www.w3.org/1999/xlink" x="0px" y="0px"
	 viewBox="0 0 82.8 105.9" style="enable-background:new 0 0 82.8 105.9;" xml:space="preserve">
<style type="text/css">
	.st0{fill:none;stroke:#F2F4FC;stroke-width:2;}
</style>
<g>
	<path class="st0" d="M52.5,42.5L37.4,57.9L26.3,46.6l-5.5,5.7l16.6,17l25.4-25.9l-5.5-5.7L52.5,42.5z"/>
	<path class="st0" d="M68.7,10.9c-6.6,0-13.1-1.4-19.1-4.3c-2.8-1.4-5.8-3.1-8.3-5.3c-2.5,2.2-5.4,3.9-8.3,5.3
		c-5.9,2.9-12.5,4.3-19.1,4.3H1v50c0,8.8,3.5,17.2,9.6,23.3c9.1,8.9,30.8,20.5,30.8,20.5s21.7-11.6,30.8-20.5
		c6.2-6.1,9.6-14.5,9.6-23.3v-50H68.7z"/>
	<path class="st0" d="M71.2,29v32.3c0,5.8-2.3,11.5-6.4,15.5c-5.7,5.6-18.6,13.3-23.4,16c-4.8-2.8-17.7-10.4-23.4-16
		c-4.1-4-6.4-9.7-6.4-15.5V22.1H14c8.3,0,16.4-1.8,23.6-5.3c1.3-0.6,2.5-1.3,3.7-2c1.2,0.7,2.5,1.4,3.8,2c7.2,3.5,15.3,5.3,23.6,5.3
		h2.5V29z"/>
</g>
</svg>
